# Blender v2.79 (sub 0) OBJ File: '3d_hex.blend'
# www.blender.org
mtllib 3d_hex.mtl
o Plane
v -1.000000 0.000000 1.732000
v 1.000000 0.000000 1.732000
v -1.000000 0.000000 -1.732000
v 1.000000 0.000000 -1.732000
v -2.000000 0.000000 0.000000
v 2.000000 0.000000 0.000000
v -1.000000 0.000000 1.732000
v 1.000000 0.000000 1.732000
v -1.000000 0.000000 -1.732000
v 1.000000 0.000000 -1.732000
v -2.000000 0.000000 0.000000
v 2.000000 0.000000 0.000000
v -1.000000 0.328023 1.732000
v 1.000000 0.328023 1.732000
v -1.000000 0.328023 -1.732000
v 1.000000 0.328023 -1.732000
v -2.000000 0.328023 0.000000
v 2.000000 0.328023 0.000000
v -1.879824 0.385400 0.000000
v -0.939912 0.385400 1.627928
v 0.939912 0.385400 1.627928
v 1.879824 0.385400 0.000000
v 0.939912 0.385400 -1.627928
v -0.939912 0.385400 -1.627928
v -1.757024 0.320378 0.000000
v -0.878512 0.320378 1.521582
v 0.878512 0.320378 1.521582
v 1.757024 0.320378 0.000000
v 0.878512 0.320378 -1.521582
v -0.878512 0.320378 -1.521582
vt 0.751881 0.991265
vt 0.518244 0.874177
vt 0.517229 0.586586
vt 0.749417 0.455713
vt 0.977823 0.580179
vt 0.978844 0.844756
vt 0.495099 0.003520
vt 0.660248 0.279222
vt 0.600390 0.282754
vt 0.468783 0.055964
vt 0.513159 0.877392
vt 0.512420 0.582711
vt 0.748636 0.449745
vt 0.982808 0.576913
vt 0.752596 0.997041
vt 0.984272 0.847136
vt 0.072739 0.280004
vt 0.209827 0.051886
vt 0.218882 0.068990
vt 0.093673 0.280296
vt 0.495308 0.559837
vt 0.177237 0.559837
vt 0.203580 0.507289
vt 0.462638 0.510486
vt 0.177110 0.002484
vt 0.012962 0.283497
vt 0.212581 0.492031
vt 0.112150 0.280539
vt 0.222145 0.475838
vt 0.579432 0.282467
vt 0.459798 0.071195
vt 0.453591 0.493402
vt 0.228207 0.085128
vt 0.450246 0.087367
vt 0.560946 0.282227
vt 0.444272 0.477272
vn 0.0000 -1.0000 0.0000
vn 0.8660 0.0000 0.5000
vn 0.0000 0.0000 1.0000
vn -0.4181 0.8757 0.2414
vn 0.0000 0.0000 -1.0000
vn -0.8660 0.0000 -0.5000
vn 0.8660 0.0000 -0.5000
vn -0.8660 0.0000 0.5000
vn 0.4517 0.8532 0.2608
vn 0.4181 0.8757 0.2414
vn 0.0000 0.8757 -0.4828
vn 0.0000 0.8757 0.4828
vn -0.4181 0.8757 -0.2414
vn 0.4181 0.8757 -0.2414
vn 0.0000 1.0000 -0.0000
vn -0.4517 0.8532 0.2608
vn 0.4517 0.8532 -0.2608
vn -0.4517 0.8532 -0.2608
vn 0.0000 0.8532 0.5216
vn 0.0000 0.8532 -0.5216
usemtl Material
s off
f 1/1/1 5/2/1 3/3/1 4/4/1 6/5/1 2/6/1
f 8/7/2 12/8/2 18/9/2 14/10/2
f 3/3/3 5/2/3 11/11/3 9/12/3
f 6/5/3 4/4/3 10/13/3 12/14/3
f 5/2/3 1/1/3 7/15/3 11/11/3
f 2/6/3 6/5/3 12/14/3 8/16/3
f 4/4/3 3/3/3 9/12/3 10/13/3
f 1/1/3 2/6/3 8/16/3 7/15/3
f 17/17/4 13/18/4 20/19/4 19/20/4
f 10/21/5 9/22/5 15/23/5 16/24/5
f 7/25/3 8/7/3 14/10/3 13/18/3
f 9/22/6 11/26/6 17/17/6 15/23/6
f 12/8/7 10/21/7 16/24/7 18/9/7
f 11/26/8 7/25/8 13/18/8 17/17/8
f 24/27/9 19/20/9 25/28/9 30/29/9
f 14/10/10 18/9/10 22/30/10 21/31/10
f 16/24/11 15/23/11 24/27/11 23/32/11
f 13/18/12 14/10/12 21/31/12 20/19/12
f 15/23/13 17/17/13 19/20/13 24/27/13
f 18/9/14 16/24/14 23/32/14 22/30/14
f 26/33/15 27/34/15 28/35/15 29/36/15 30/29/15 25/28/15
f 22/30/16 23/32/16 29/36/16 28/35/16
f 19/20/17 20/19/17 26/33/17 25/28/17
f 21/31/18 22/30/18 28/35/18 27/34/18
f 23/32/19 24/27/19 30/29/19 29/36/19
f 20/19/20 21/31/20 27/34/20 26/33/20
